<svg xmlns="http://www.w3.org/2000/svg" viewBox="0 0 24 24" width="58" height="58">
  <!-- Clean gear icon based on Material Design -->
  <path d="M19.14 12.94a7.07 7.07 0 0 0 .06-.94 7.07 7.07 0 0 0-.06-.94l2.03-1.58a.49.49 0 0 0 .12-.61l-1.92-3.32a.49.49 0 0 0-.59-.22l-2.39.96a7.04 7.04 0 0 0-1.62-.94l-.36-2.54a.48.48 0 0 0-.48-.41h-3.84a.48.48 0 0 0-.48.41l-.36 2.54a7.04 7.04 0 0 0-1.62.94l-2.39-.96a.49.49 0 0 0-.59.22L2.74 8.87a.48.48 0 0 0 .12.61l2.03 1.58a7.07 7.07 0 0 0-.06.94c0 .32.02.64.06.94L2.86 14.52a.49.49 0 0 0-.12.61l1.92 3.32a.49.49 0 0 0 .59.22l2.39-.96c.5.38 1.04.7 1.62.94l.36 2.54a.48.48 0 0 0 .48.41h3.84a.48.48 0 0 0 .48-.41l.36-2.54a7.04 7.04 0 0 0 1.62-.94l2.39.96a.49.49 0 0 0 .59-.22l1.92-3.32a.48.48 0 0 0-.12-.61l-2.03-1.58zM12 15.6A3.6 3.6 0 1 1 12 8.4a3.6 3.6 0 0 1 0 7.2z" fill="#2B7366"/>
</svg>
